<mxfile host="app.diagrams.net" modified="2022-09-05T11:00:27.067Z" agent="5.0 (Macintosh; Intel Mac OS X 10_15_7) AppleWebKit/537.36 (KHTML, like Gecko) Chrome/104.0.0.0 Safari/537.36" etag="SGuSq3EeC7RvmtBVobRz" version="20.2.8" type="github">
  <diagram id="uoqRytM2XE6J9On9qTQU" name="第 1 页">
    <mxGraphModel dx="2505" dy="2141" grid="1" gridSize="10" guides="1" tooltips="1" connect="1" arrows="1" fold="1" page="1" pageScale="1" pageWidth="827" pageHeight="1169" math="0" shadow="0">
      <root>
        <mxCell id="0" />
        <mxCell id="1" parent="0" />
        <mxCell id="SYEgB2U9We9SsdnWn9XJ-4" value="" style="rounded=1;whiteSpace=wrap;html=1;fillColor=#fff2cc;strokeColor=#d6b656;" vertex="1" parent="1">
          <mxGeometry x="480" y="168" width="350" height="210" as="geometry" />
        </mxCell>
        <mxCell id="SYEgB2U9We9SsdnWn9XJ-5" value="" style="rounded=1;whiteSpace=wrap;html=1;fillColor=#f8cecc;strokeColor=#b85450;" vertex="1" parent="1">
          <mxGeometry x="25" y="167" width="340" height="210" as="geometry" />
        </mxCell>
        <mxCell id="SYEgB2U9We9SsdnWn9XJ-15" style="edgeStyle=orthogonalEdgeStyle;rounded=0;orthogonalLoop=1;jettySize=auto;html=1;exitX=0.5;exitY=0;exitDx=0;exitDy=0;entryX=0.5;entryY=1;entryDx=0;entryDy=0;" edge="1" parent="1" source="SYEgB2U9We9SsdnWn9XJ-6" target="SYEgB2U9We9SsdnWn9XJ-4">
          <mxGeometry relative="1" as="geometry" />
        </mxCell>
        <mxCell id="SYEgB2U9We9SsdnWn9XJ-16" style="edgeStyle=orthogonalEdgeStyle;rounded=0;orthogonalLoop=1;jettySize=auto;html=1;exitX=0.5;exitY=0;exitDx=0;exitDy=0;entryX=0.5;entryY=1;entryDx=0;entryDy=0;" edge="1" parent="1" source="SYEgB2U9We9SsdnWn9XJ-6" target="SYEgB2U9We9SsdnWn9XJ-7">
          <mxGeometry relative="1" as="geometry" />
        </mxCell>
        <mxCell id="SYEgB2U9We9SsdnWn9XJ-44" value="三套方案可独立解耦、也可灵活组合，由Controller层调度" style="edgeLabel;html=1;align=center;verticalAlign=middle;resizable=0;points=[];fontSize=20;fontColor=#FF0000;" vertex="1" connectable="0" parent="SYEgB2U9We9SsdnWn9XJ-16">
          <mxGeometry x="-0.7627" y="2" relative="1" as="geometry">
            <mxPoint as="offset" />
          </mxGeometry>
        </mxCell>
        <mxCell id="SYEgB2U9We9SsdnWn9XJ-17" style="edgeStyle=orthogonalEdgeStyle;rounded=0;orthogonalLoop=1;jettySize=auto;html=1;exitX=0.5;exitY=0;exitDx=0;exitDy=0;entryX=0.5;entryY=1;entryDx=0;entryDy=0;" edge="1" parent="1" source="SYEgB2U9We9SsdnWn9XJ-6" target="SYEgB2U9We9SsdnWn9XJ-5">
          <mxGeometry relative="1" as="geometry" />
        </mxCell>
        <mxCell id="SYEgB2U9We9SsdnWn9XJ-6" value="" style="rounded=1;whiteSpace=wrap;html=1;fillColor=#dae8fc;strokeColor=#6c8ebf;" vertex="1" parent="1">
          <mxGeometry x="-60" y="495" width="510" height="315" as="geometry" />
        </mxCell>
        <mxCell id="SYEgB2U9We9SsdnWn9XJ-7" value="" style="rounded=1;whiteSpace=wrap;html=1;fillColor=#d5e8d4;strokeColor=#82b366;" vertex="1" parent="1">
          <mxGeometry x="-460" y="160" width="360" height="218" as="geometry" />
        </mxCell>
        <mxCell id="SYEgB2U9We9SsdnWn9XJ-22" value="&lt;h1&gt;&lt;font style=&quot;font-size: 20px;&quot;&gt;B: WebRTC推流的活体方案（云）&lt;/font&gt;&lt;/h1&gt;&lt;p&gt;&lt;span style=&quot;font-size: 16px;&quot;&gt;简述：WebRTC前端推流与云端全量模型的推理服务进行交付的一套方案&lt;/span&gt;&lt;/p&gt;&lt;p&gt;&lt;span style=&quot;background-color: initial; font-size: 16px;&quot;&gt;&lt;br&gt;&lt;/span&gt;&lt;/p&gt;&lt;p&gt;&lt;span style=&quot;background-color: initial; font-size: 16px;&quot;&gt;优点：可保障&lt;font color=&quot;#ff0000&quot;&gt;活体检测效果最优&lt;/font&gt;，因为有云端全量模型加持&lt;/span&gt;&lt;br&gt;&lt;/p&gt;" style="text;html=1;strokeColor=none;fillColor=none;spacing=5;spacingTop=-20;whiteSpace=wrap;overflow=hidden;rounded=0;dashed=1;opacity=0;" vertex="1" parent="1">
          <mxGeometry x="35" y="183" width="320" height="180" as="geometry" />
        </mxCell>
        <mxCell id="SYEgB2U9We9SsdnWn9XJ-24" value="&lt;h1&gt;&lt;font style=&quot;font-size: 20px;&quot;&gt;A: 基于PaddleJS的活体方案（端）&lt;/font&gt;&lt;/h1&gt;&lt;p&gt;&lt;span style=&quot;font-size: 16px;&quot;&gt;简述：基于PaddleJS实现的离线化实时活体检测方案&lt;/span&gt;&lt;br&gt;&lt;/p&gt;&lt;p&gt;&lt;br&gt;&lt;/p&gt;&lt;p&gt;&lt;span style=&quot;font-size: 16px;&quot;&gt;优势：模型下发本地，&lt;font color=&quot;#ff0000&quot;&gt;稳定性高、可支持弱网及离线环境检测，兼容性较优&lt;/font&gt;&lt;/span&gt;&lt;br&gt;&lt;/p&gt;&lt;p&gt;&lt;br&gt;&lt;/p&gt;" style="text;html=1;strokeColor=none;fillColor=none;spacing=5;spacingTop=-20;whiteSpace=wrap;overflow=hidden;rounded=0;dashed=1;opacity=0;" vertex="1" parent="1">
          <mxGeometry x="-445" y="180" width="325" height="185" as="geometry" />
        </mxCell>
        <mxCell id="SYEgB2U9We9SsdnWn9XJ-25" value="&lt;h1&gt;&lt;font style=&quot;font-size: 22px;&quot;&gt;C: 视频录制的Fallback方案&lt;/font&gt;&lt;/h1&gt;&lt;p&gt;&lt;span style=&quot;font-size: 16px;&quot;&gt;简述：非实时活体方式，用户需手动调取系统相机录制一段人脸视频上传云端进行活检&lt;/span&gt;&lt;br&gt;&lt;/p&gt;&lt;p&gt;&lt;br&gt;&lt;/p&gt;&lt;p&gt;&lt;span style=&quot;font-size: 16px; background-color: initial;&quot;&gt;优势：&lt;font color=&quot;#ff0000&quot;&gt;兼容性最优&lt;/font&gt;&lt;/span&gt;&lt;br&gt;&lt;/p&gt;&lt;p&gt;&lt;br&gt;&lt;/p&gt;" style="text;html=1;strokeColor=none;fillColor=none;spacing=5;spacingTop=-20;whiteSpace=wrap;overflow=hidden;rounded=0;dashed=1;opacity=0;" vertex="1" parent="1">
          <mxGeometry x="496" y="181.5" width="320" height="185" as="geometry" />
        </mxCell>
        <mxCell id="SYEgB2U9We9SsdnWn9XJ-26" value="&lt;h1 style=&quot;&quot;&gt;&lt;font style=&quot;font-size: 20px;&quot;&gt;Controller(方案调度)&lt;/font&gt;&lt;/h1&gt;&lt;p style=&quot;font-size: 16px;&quot;&gt;&lt;font style=&quot;font-size: 16px;&quot;&gt;方案调度策略：&lt;/font&gt;&lt;/p&gt;&lt;p style=&quot;font-size: 16px;&quot;&gt;&lt;font style=&quot;font-size: 16px;&quot;&gt;1、优先调度 A、B 两种实时活体方案&lt;/font&gt;&lt;/p&gt;&lt;p style=&quot;font-size: 16px;&quot;&gt;&lt;font style=&quot;font-size: 16px;&quot;&gt;2、可根据网络环境监测结果调度&lt;/font&gt;&lt;/p&gt;&lt;p style=&quot;font-size: 16px;&quot;&gt;&lt;font style=&quot;font-size: 16px;&quot;&gt;(1)&amp;nbsp; 网络条件良好调度使用 B 方案&lt;/font&gt;&lt;/p&gt;&lt;p style=&quot;font-size: 16px;&quot;&gt;&lt;font style=&quot;font-size: 16px;&quot;&gt;(2)&amp;nbsp; 网络抖动、与远端断连且Retry无果情况下调度并使用&amp;nbsp; A 方案&lt;/font&gt;&lt;/p&gt;&lt;p style=&quot;font-size: 16px;&quot;&gt;&lt;font style=&quot;font-size: 16px;&quot;&gt;3、兼容性分级处理，最终有“Fallback”方案兜底&lt;/font&gt;&lt;/p&gt;" style="text;html=1;strokeColor=none;fillColor=none;spacing=5;spacingTop=-20;whiteSpace=wrap;overflow=hidden;rounded=0;dashed=1;opacity=0;" vertex="1" parent="1">
          <mxGeometry x="35" y="510" width="320" height="287" as="geometry" />
        </mxCell>
        <mxCell id="SYEgB2U9We9SsdnWn9XJ-28" value="" style="whiteSpace=wrap;html=1;aspect=fixed;dashed=1;strokeColor=#00CCCC;fontSize=22;fontColor=#FF0000;fillColor=#F8CECC;opacity=0;" vertex="1" parent="1">
          <mxGeometry x="-570" y="150" width="80" height="80" as="geometry" />
        </mxCell>
        <mxCell id="SYEgB2U9We9SsdnWn9XJ-29" value="" style="whiteSpace=wrap;html=1;aspect=fixed;dashed=1;strokeColor=#00CCCC;fontSize=22;fontColor=#FF0000;fillColor=#F8CECC;opacity=0;" vertex="1" parent="1">
          <mxGeometry x="-453" y="-40" width="80" height="80" as="geometry" />
        </mxCell>
        <mxCell id="SYEgB2U9We9SsdnWn9XJ-37" style="edgeStyle=orthogonalEdgeStyle;rounded=0;orthogonalLoop=1;jettySize=auto;html=1;exitX=0.5;exitY=1;exitDx=0;exitDy=0;entryX=0.5;entryY=0;entryDx=0;entryDy=0;fontSize=22;fontColor=#FF0000;" edge="1" parent="1" source="SYEgB2U9We9SsdnWn9XJ-31" target="SYEgB2U9We9SsdnWn9XJ-5">
          <mxGeometry relative="1" as="geometry" />
        </mxCell>
        <mxCell id="SYEgB2U9We9SsdnWn9XJ-31" value="&lt;h1 style=&quot;text-align: left; font-size: 20px;&quot;&gt;分级消息服务&lt;/h1&gt;" style="rounded=1;whiteSpace=wrap;html=1;fillColor=#e1d5e7;strokeColor=#9673a6;" vertex="1" parent="1">
          <mxGeometry x="240" y="-90" width="210" height="120" as="geometry" />
        </mxCell>
        <mxCell id="SYEgB2U9We9SsdnWn9XJ-35" style="edgeStyle=orthogonalEdgeStyle;rounded=0;orthogonalLoop=1;jettySize=auto;html=1;exitX=0.5;exitY=1;exitDx=0;exitDy=0;entryX=0.5;entryY=0;entryDx=0;entryDy=0;fontSize=22;fontColor=#FF0000;" edge="1" parent="1" source="SYEgB2U9We9SsdnWn9XJ-32" target="SYEgB2U9We9SsdnWn9XJ-5">
          <mxGeometry relative="1" as="geometry" />
        </mxCell>
        <mxCell id="SYEgB2U9We9SsdnWn9XJ-32" value="" style="rounded=1;whiteSpace=wrap;html=1;fillColor=#e1d5e7;strokeColor=#9673a6;" vertex="1" parent="1">
          <mxGeometry x="-60" y="-90" width="190" height="120" as="geometry" />
        </mxCell>
        <mxCell id="SYEgB2U9We9SsdnWn9XJ-38" value="&lt;h1 style=&quot;font-size: 20px;&quot;&gt;WebRTC推拉流SDK&lt;/h1&gt;" style="text;html=1;strokeColor=none;fillColor=none;spacing=5;spacingTop=-20;whiteSpace=wrap;overflow=hidden;rounded=0;dashed=1;opacity=0;" vertex="1" parent="1">
          <mxGeometry x="-39" y="-54" width="170" height="50" as="geometry" />
        </mxCell>
        <mxCell id="SYEgB2U9We9SsdnWn9XJ-43" style="edgeStyle=orthogonalEdgeStyle;rounded=0;orthogonalLoop=1;jettySize=auto;html=1;exitX=0.5;exitY=0;exitDx=0;exitDy=0;entryX=0.5;entryY=1;entryDx=0;entryDy=0;fontSize=20;fontColor=#FF0000;" edge="1" parent="1" source="SYEgB2U9We9SsdnWn9XJ-41" target="SYEgB2U9We9SsdnWn9XJ-6">
          <mxGeometry relative="1" as="geometry" />
        </mxCell>
        <mxCell id="SYEgB2U9We9SsdnWn9XJ-41" value="&lt;h1 style=&quot;text-align: left;&quot;&gt;&lt;span style=&quot;font-size: 20px;&quot;&gt;V2 版本 “端”“云”结合&lt;/span&gt;&lt;/h1&gt;" style="rounded=1;whiteSpace=wrap;html=1;fillColor=#ffe6cc;strokeColor=#d79b00;" vertex="1" parent="1">
          <mxGeometry x="77.5" y="880" width="235" height="100" as="geometry" />
        </mxCell>
      </root>
    </mxGraphModel>
  </diagram>
</mxfile>
